<svg width="121" height="121" viewBox="0 0 121 121" fill="none" xmlns="http://www.w3.org/2000/svg">
<path d="M111.074 7.5625H9.92578C8.29671 7.56431 6.73488 8.21227 5.58294 9.3642C4.43101 10.5161 3.78306 12.078 3.78125 13.707V88.3867C3.78306 90.0158 4.43101 91.5776 5.58294 92.7296C6.73488 93.8815 8.29671 94.5294 9.92578 94.5312H49.1562V102.094H43.4844C43.0627 102.094 42.6532 102.235 42.3209 102.494C41.9885 102.754 41.7525 103.117 41.6502 103.526L39.7596 111.088C39.6899 111.367 39.6847 111.658 39.7443 111.939C39.8039 112.22 39.9268 112.484 40.1036 112.71C40.2804 112.937 40.5065 113.12 40.7647 113.246C41.0229 113.372 41.3064 113.437 41.5938 113.438H79.4062C79.6936 113.437 79.9771 113.372 80.2353 113.246C80.4935 113.12 80.7196 112.937 80.8964 112.71C81.0732 112.484 81.1961 112.22 81.2557 111.939C81.3153 111.658 81.3101 111.367 81.2404 111.088L79.3498 103.526C79.2475 103.117 79.0115 102.754 78.6791 102.494C78.3468 102.235 77.9373 102.094 77.5156 102.094H71.8438V94.5312H111.074C112.703 94.5294 114.265 93.8815 115.417 92.7296C116.569 91.5776 117.217 90.0158 117.219 88.3867V13.707C117.217 12.078 116.569 10.5161 115.417 9.3642C114.265 8.21227 112.703 7.56431 111.074 7.5625ZM76.0395 105.875L76.9848 109.656H44.0152L44.9605 105.875H76.0395ZM60.5 100.203C62.0037 100.201 63.4454 99.6032 64.5087 98.5399C65.572 97.4766 66.1701 96.035 66.1719 94.5312H68.0625V102.094H52.9375V94.5312H54.8281C54.8299 96.035 55.428 97.4766 56.4913 98.5399C57.5546 99.6032 58.9963 100.201 60.5 100.203ZM58.6094 94.5312H62.3906C62.3906 95.0327 62.1914 95.5136 61.8369 95.8681C61.4823 96.2227 61.0014 96.4219 60.5 96.4219C59.9986 96.4219 59.5177 96.2227 59.1631 95.8681C58.8086 95.5136 58.6094 95.0327 58.6094 94.5312ZM113.438 88.3867C113.437 89.0133 113.188 89.614 112.745 90.057C112.301 90.5001 111.701 90.7493 111.074 90.75H9.92578C9.29921 90.7493 8.6985 90.5001 8.25545 90.057C7.8124 89.614 7.56319 89.0133 7.5625 88.3867V13.707C7.56319 13.0805 7.8124 12.4798 8.25545 12.0367C8.6985 11.5936 9.29921 11.3444 9.92578 11.3438H111.074C111.701 11.3444 112.301 11.5936 112.745 12.0367C113.188 12.4798 113.437 13.0805 113.438 13.707V88.3867Z" fill="#FC8047"/>
<path d="M107.766 15.125H13.2344C12.733 15.125 12.2521 15.3242 11.8975 15.6788C11.5429 16.0333 11.3438 16.5142 11.3438 17.0156V85.0781C11.3438 85.5796 11.5429 86.0604 11.8975 86.415C12.2521 86.7696 12.733 86.9688 13.2344 86.9688H107.766C108.267 86.9688 108.748 86.7696 109.103 86.415C109.457 86.0604 109.656 85.5796 109.656 85.0781V17.0156C109.656 16.5142 109.457 16.0333 109.103 15.6788C108.748 15.3242 108.267 15.125 107.766 15.125ZM22.6875 73.7344V75.625H20.7969V71.8438H22.813C22.7307 72.3065 22.6875 73.7344 22.6875 73.7344ZM30.25 83.1875H26.4688V76.1558L30.25 77.1011V83.1875ZM45.375 75.625V83.1875H34.0312V75.625C34.0312 75.2034 33.8903 74.7938 33.6308 74.4615C33.3713 74.1292 33.0082 73.8931 32.5991 73.7909L26.5869 72.2876C26.6926 71.836 26.8718 71.4048 27.1175 71.0114L27.1189 71.0093C27.4379 70.4984 27.8622 70.0614 28.3635 69.7274C28.8647 69.3935 29.4314 69.1702 30.0257 69.0726L35.1675 68.2156C36.3737 69.4138 38.0049 70.0862 39.705 70.0862C41.4052 70.0862 43.0363 69.4138 44.2425 68.2156L49.3843 69.0726C50.2111 69.2084 50.9791 69.5864 51.591 70.1589C52.2029 70.7313 52.6313 71.4723 52.8219 72.2883L46.8086 73.7916C46.3994 73.8935 46.036 74.1293 45.7762 74.4616C45.5165 74.7938 45.3752 75.2033 45.375 75.625ZM46.7119 51.6006L42.9307 47.8193C42.6501 47.5387 42.2883 47.3534 41.8966 47.2898C41.5049 47.2262 41.1031 47.2874 40.7482 47.4649L33.1857 51.2461C32.8716 51.4032 32.6074 51.6446 32.4229 51.9433C32.2383 52.2421 32.1405 52.5863 32.1406 52.9375V56.7188C32.1396 58.5585 32.8121 60.335 34.0312 61.7128V64.5703L32.5733 64.813C31.0704 63.0964 30.2444 60.891 30.25 58.6094V51.0469C30.25 48.5397 31.246 46.1353 33.0188 44.3625C34.7916 42.5897 37.196 41.5938 39.7031 41.5938C42.2102 41.5938 44.6147 42.5897 46.3875 44.3625C48.1603 46.1353 49.1562 48.5397 49.1562 51.0469V58.6094C49.1619 60.891 48.3359 63.0964 46.8329 64.813L45.375 64.5703V61.7128C46.5941 60.335 47.2667 58.5585 47.2656 56.7188V52.9375C47.2656 52.6892 47.2167 52.4434 47.1217 52.214C47.0267 51.9846 46.8875 51.7762 46.7119 51.6006ZM39.7031 60.5C38.7006 60.4988 37.7396 60.1 37.0307 59.3912C36.3218 58.6823 35.9231 57.7212 35.9219 56.7188V54.1059L41.2204 51.4567L43.4844 53.7205V56.7188C43.4832 57.7212 43.0844 58.6823 42.3756 59.3912C41.6667 60.1 40.7056 60.4988 39.7031 60.5ZM41.5938 64.0419V65.5102C41.3475 65.762 41.0534 65.9621 40.7287 66.0987C40.404 66.2353 40.0554 66.3056 39.7031 66.3056C39.3509 66.3056 39.0022 66.2353 38.6775 66.0987C38.3529 65.9621 38.0588 65.762 37.8125 65.5102V64.0428C39.0527 64.362 40.3535 64.362 41.5938 64.0428V64.0419ZM53.4652 83.1875H49.1562V77.1011L53.2998 76.0653L54.1463 81.1444L53.4652 83.1875ZM54.8137 68.0625C53.8024 66.8715 52.4645 66.0027 50.9651 65.5633C52.2595 63.4752 52.9428 61.0661 52.9375 58.6094V51.0469C52.9375 47.5369 51.5432 44.1707 49.0612 41.6888C46.5793 39.2068 43.2131 37.8125 39.7031 37.8125C36.1932 37.8125 32.8269 39.2068 30.345 41.6888C27.8631 44.1707 26.4688 47.5369 26.4688 51.0469V58.6094C26.4636 61.0662 27.1469 63.4753 28.4411 65.5636C26.9414 66.0027 25.603 66.8714 24.5914 68.0625H22.6875V30.25H98.3125V68.0625H69.9531C69.9531 67.5611 69.7539 67.0802 69.3994 66.7256C69.0448 66.3711 68.5639 66.1719 68.0625 66.1719H66.7877L69.8803 55.348C69.9486 55.1093 69.9692 54.8595 69.9409 54.6128C69.9127 54.3661 69.8361 54.1274 69.7155 53.9104C69.595 53.6933 69.4329 53.5021 69.2385 53.3476C69.0441 53.1932 68.8211 53.0786 68.5824 53.0103C68.3437 52.942 68.0939 52.9214 67.8472 52.9497C67.6005 52.978 67.3618 53.0546 67.1447 53.1751C66.9277 53.2956 66.7364 53.4577 66.582 53.6521C66.4276 53.8465 66.3129 54.0695 66.2447 54.3082L62.855 66.1719H60.5C60.1032 66.1718 59.7164 66.2967 59.3945 66.5287C59.0725 66.7607 58.8318 67.0881 58.7063 67.4646L58.507 68.0625H54.8137ZM100.203 71.8438V75.625H68.5089L68.9081 75.4253C69.2221 75.2683 69.4862 75.0269 69.6708 74.7283C69.8553 74.4296 69.9531 74.0855 69.9531 73.7344V71.8438H100.203ZM56.7523 73.3267L56.7171 73.1076C56.7085 72.6837 56.6666 72.2611 56.5918 71.8438H57.2465L56.7523 73.3267ZM62.4273 75.2542L62.052 77.1309L62.0503 77.1392L60.8405 83.1875H57.4514L61.8627 69.9531H66.1719V72.566L63.4357 73.9341C63.1782 74.0628 62.9535 74.2487 62.7787 74.4775C62.6039 74.7062 62.4837 74.9719 62.4273 75.2542ZM105.875 83.1875H64.697L65.4532 79.4062H102.094C102.595 79.4062 103.076 79.2071 103.431 78.8525C103.785 78.4979 103.984 78.0171 103.984 77.5156V69.9531C103.984 69.4517 103.785 68.9708 103.431 68.6162C103.076 68.2617 102.595 68.0625 102.094 68.0625V28.3594C102.094 27.858 101.895 27.3771 101.54 27.0225C101.185 26.6679 100.705 26.4688 100.203 26.4688H20.7969C20.2955 26.4688 19.8146 26.6679 19.46 27.0225C19.1054 27.3771 18.9062 27.858 18.9062 28.3594V68.0625C18.4048 68.0625 17.9239 68.2617 17.5694 68.6162C17.2148 68.9708 17.0156 69.4517 17.0156 69.9531V77.5156C17.0156 78.0171 17.2148 78.4979 17.5694 78.8525C17.9239 79.2071 18.4048 79.4062 18.9062 79.4062H22.6875V83.1875H15.125V18.9062H105.875V83.1875Z" fill="#FC8047"/>
<path d="M72.0427 48.1112C72.1997 48.4252 72.4411 48.6893 72.7397 48.8739C73.0384 49.0585 73.3826 49.1562 73.7336 49.1562C73.7783 49.1562 73.8232 49.1546 73.8681 49.1513C74.2411 49.1248 74.5979 48.9884 74.8933 48.7591C75.1887 48.5299 75.4095 48.2183 75.5278 47.8635L78.8776 37.8125H92.6399C93.1413 37.8125 93.6222 37.6133 93.9768 37.2588C94.3313 36.9042 94.5305 36.4233 94.5305 35.9219C94.5305 35.4205 94.3313 34.9396 93.9768 34.585C93.6222 34.2304 93.1413 34.0313 92.6399 34.0313H77.5149C77.1181 34.0312 76.7313 34.1561 76.4094 34.3881C76.0874 34.6201 75.8467 34.9475 75.7212 35.324L73.3834 42.3375L71.6433 38.8575C71.4167 38.4131 71.0236 38.0762 70.5498 37.9204C70.0759 37.7645 69.5596 37.8022 69.1134 38.0253C68.6672 38.2485 68.3273 38.6389 68.1677 39.1116C68.0081 39.5842 68.0418 40.1008 68.2615 40.5487L72.0427 48.1112Z" fill="#FC8047"/>
<path d="M81.8507 48.6026C82.0262 48.7781 82.2347 48.9174 82.464 49.0124C82.6934 49.1075 82.9393 49.1564 83.1876 49.1564C83.4359 49.1564 83.6817 49.1075 83.9111 49.0124C84.1405 48.9174 84.3489 48.7781 84.5245 48.6026L86.0235 47.1035L87.5225 48.6026C87.6981 48.7781 87.9065 48.9174 88.1359 49.0124C88.3653 49.1074 88.6112 49.1563 88.8594 49.1563C89.1077 49.1563 89.3536 49.1074 89.583 49.0124C89.8124 48.9174 90.0208 48.7781 90.1964 48.6026C90.3719 48.427 90.5112 48.2186 90.6062 47.9892C90.7012 47.7598 90.7501 47.514 90.7501 47.2657C90.7501 47.0174 90.7012 46.7715 90.6062 46.5421C90.5112 46.3128 90.3719 46.1043 90.1964 45.9288L88.6973 44.4297L90.1964 42.9307C90.5509 42.5761 90.7501 42.0952 90.7501 41.5938C90.7501 41.0924 90.5509 40.6115 90.1964 40.2569C89.8418 39.9023 89.3609 39.7031 88.8594 39.7031C88.358 39.7031 87.8771 39.9023 87.5225 40.2569L86.0235 41.7559L84.5245 40.2569C84.1699 39.9023 83.689 39.7031 83.1876 39.7031C82.6861 39.7031 82.2052 39.9023 81.8507 40.2569C81.4961 40.6115 81.2969 41.0924 81.2969 41.5938C81.2969 42.0952 81.4961 42.5761 81.8507 42.9307L83.3497 44.4297L81.8507 45.9288C81.6751 46.1043 81.5358 46.3127 81.4408 46.5421C81.3458 46.7715 81.2969 47.0174 81.2969 47.2657C81.2969 47.514 81.3458 47.7598 81.4408 47.9892C81.5358 48.2186 81.6751 48.427 81.8507 48.6026Z" fill="#FC8047"/>
<path d="M75.625 56.7188H77.5156C78.017 56.7188 78.4979 56.5196 78.8525 56.165C79.2071 55.8104 79.4062 55.3296 79.4062 54.8281C79.4062 54.3267 79.2071 53.8458 78.8525 53.4912C78.4979 53.1367 78.017 52.9375 77.5156 52.9375H75.625C75.1236 52.9375 74.6427 53.1367 74.2881 53.4912C73.9336 53.8458 73.7344 54.3267 73.7344 54.8281C73.7344 55.3296 73.9336 55.8104 74.2881 56.165C74.6427 56.5196 75.1236 56.7188 75.625 56.7188Z" fill="#FC8047"/>
<path d="M92.6406 52.9375H83.1875C82.6861 52.9375 82.2052 53.1367 81.8506 53.4912C81.4961 53.8458 81.2969 54.3267 81.2969 54.8281C81.2969 55.3296 81.4961 55.8104 81.8506 56.165C82.2052 56.5196 82.6861 56.7188 83.1875 56.7188H92.6406C93.142 56.7188 93.6229 56.5196 93.9775 56.165C94.3321 55.8104 94.5312 55.3296 94.5312 54.8281C94.5312 54.3267 94.3321 53.8458 93.9775 53.4912C93.6229 53.1367 93.142 52.9375 92.6406 52.9375Z" fill="#FC8047"/>
<path d="M85.0781 60.5H75.625C75.1236 60.5 74.6427 60.6992 74.2881 61.0537C73.9336 61.4083 73.7344 61.8892 73.7344 62.3906C73.7344 62.8921 73.9336 63.3729 74.2881 63.7275C74.6427 64.0821 75.1236 64.2812 75.625 64.2812H85.0781C85.5795 64.2812 86.0604 64.0821 86.415 63.7275C86.7696 63.3729 86.9688 62.8921 86.9688 62.3906C86.9688 61.8892 86.7696 61.4083 86.415 61.0537C86.0604 60.6992 85.5795 60.5 85.0781 60.5Z" fill="#FC8047"/>
</svg>
