<svg width="94" height="87" viewBox="0 0 94 87" fill="none" xmlns="http://www.w3.org/2000/svg">
<path d="M83.0777 0.60376H9.96932C4.47207 0.60376 0 4.2208 0 8.667V30.169C0 34.6152 4.47207 38.2322 9.96932 38.2322H29.9499C30.1651 42.8726 32.5581 47.0968 36.5542 49.8729V51.671H36.1388C26.9774 51.671 19.5233 57.6999 19.5233 65.1097V83.9239C19.5233 85.4096 21.0095 86.6117 22.8464 86.6117H69.7852C71.6221 86.6117 73.1084 85.4096 73.1084 83.9239V65.1097C73.1084 57.6999 65.6542 51.671 56.4928 51.671V49.8729C60.4889 47.0964 62.8819 42.8726 63.0971 38.2322H66.4621V46.2955C66.4621 47.382 67.2701 48.3637 68.5133 48.7786C68.9254 48.9177 69.357 48.9832 69.7852 48.9832C70.6484 48.9832 71.4987 48.7104 72.1347 48.1957L84.5639 38.1429C89.3604 37.5603 93.047 34.206 93.047 30.169V8.667C93.047 4.2208 88.5749 0.60376 83.0777 0.60376ZM46.5235 61.3092L44.3086 59.5179C45.0235 59.6502 45.7596 59.7346 46.5235 59.7346C47.2874 59.7346 48.0235 59.6502 48.7383 59.5179L46.5235 61.3092ZM66.4621 65.1097V81.2362H26.1695V65.1097C26.1695 61.4608 29.2006 58.4058 33.3195 57.415C33.4163 57.9731 33.6739 58.5177 34.2043 58.947L43.2004 66.2224V75.8607C43.2004 77.3464 44.6867 78.5484 46.5235 78.5484C48.3603 78.5484 49.8466 77.3464 49.8466 75.8607V66.2224L58.8423 58.9467C59.3416 58.5432 59.5883 58.0352 59.7034 57.5131C63.6209 58.601 66.4621 61.5767 66.4621 65.1097ZM51.2809 46.3428C50.382 46.8468 49.8466 47.6736 49.8466 48.5555V51.671C49.8466 53.1539 48.357 54.3587 46.5235 54.3587C44.69 54.3587 43.2004 53.1539 43.2004 51.671V48.5555C43.2004 47.6736 42.665 46.8468 41.7661 46.3428C38.5501 44.5474 36.5542 41.1824 36.5542 37.5603C36.5542 32.0037 41.0262 27.4812 46.5235 27.4812C52.0207 27.4812 56.4928 32.0037 56.4928 37.5603C56.4928 41.1824 54.4969 44.5474 51.2809 46.3428ZM86.4008 30.169C86.4008 31.652 84.9112 32.8567 83.0777 32.8567C82.195 32.8567 81.3513 33.1403 80.7282 33.6442L73.1084 39.8073V35.5445C73.1084 34.0588 71.6221 32.8567 69.7852 32.8567H62.3465C60.2014 26.6286 53.9216 22.1057 46.5235 22.1057C39.1254 22.1057 32.8456 26.6286 30.7005 32.8567H9.96932C8.1358 32.8567 6.64621 31.652 6.64621 30.169V8.667C6.64621 7.18404 8.1358 5.97926 9.96932 5.97926H83.0777C84.9112 5.97926 86.4008 7.18404 86.4008 8.667V30.169Z" fill="#FC8047"/>
<path d="M33.2303 19.418C35.0657 19.418 36.5535 18.2146 36.5535 16.7302C36.5535 15.2457 35.0657 14.0424 33.2303 14.0424C31.395 14.0424 29.9072 15.2457 29.9072 16.7302C29.9072 18.2146 31.395 19.418 33.2303 19.418Z" fill="#FFA67C"/>
<path d="M46.5233 19.418C48.3586 19.418 49.8464 18.2146 49.8464 16.7302C49.8464 15.2457 48.3586 14.0424 46.5233 14.0424C44.688 14.0424 43.2002 15.2457 43.2002 16.7302C43.2002 18.2146 44.688 19.418 46.5233 19.418Z" fill="#FFA67C"/>
<path d="M59.8163 19.418C61.6516 19.418 63.1394 18.2146 63.1394 16.7302C63.1394 15.2457 61.6516 14.0424 59.8163 14.0424C57.981 14.0424 56.4932 15.2457 56.4932 16.7302C56.4932 18.2146 57.981 19.418 59.8163 19.418Z" fill="#FFA67C"/>
</svg>
