<svg width="112" height="112" viewBox="0 0 112 112" fill="none" xmlns="http://www.w3.org/2000/svg">
<g clip-path="url(#clip0)">
<path d="M111.544 47.7661L92.798 23.4148C92.1041 22.5142 90.8386 22.292 89.8791 22.9021L77.776 30.5994H61.991C61.7868 30.5994 61.5834 30.643 61.3869 30.7002L49.148 34.2233L36.4485 30.7498L24.1088 22.9021C23.1654 22.3023 21.923 22.5056 21.2214 23.3755L0.487187 49.0581C-0.25793 49.981 -0.134883 51.3285 0.764043 52.1018L11.6315 61.4543L21.3812 74.5929C18.5298 77.6306 18.5853 82.4218 21.5521 85.3894C22.8672 86.7037 24.5394 87.4462 26.2595 87.6188C26.1997 88.0085 26.169 88.4041 26.169 88.8057C26.169 90.8787 26.9764 92.8278 28.4419 94.2933C29.9082 95.7596 31.8573 96.5671 33.9303 96.5671C33.9585 96.5671 33.9859 96.5653 34.0132 96.5645C34.0123 96.6175 34.0098 96.6696 34.0098 96.7226C34.0098 98.7956 34.8173 100.745 36.2827 102.211C37.749 103.676 39.6981 104.484 41.7711 104.484C42.1804 104.484 42.5855 104.451 42.9828 104.389C43.1511 106.115 43.8954 107.795 45.2147 109.114C46.7272 110.628 48.7147 111.384 50.7023 111.384C52.6898 111.384 54.6774 110.628 56.1907 109.114L57.3776 107.928L57.8757 108.329C59.3762 109.783 61.3245 110.509 63.2727 110.509C65.2603 110.509 67.2478 109.753 68.7603 108.239C70.3043 106.695 71.0606 104.657 71.029 102.63C73.0558 102.66 75.0946 101.905 76.6387 100.362C78.1811 98.8186 78.9373 96.7824 78.9074 94.7555C81.0188 94.7889 83.0218 93.9779 84.5163 92.4834C86.0603 90.9394 86.8166 88.9014 86.7849 86.8737C88.8135 86.9045 90.8506 86.1491 92.3947 84.605C95.0299 81.9698 95.3692 77.8964 93.4149 74.8894L100.534 59.9803L111.236 50.7705C112.121 50.0092 112.256 48.6898 111.544 47.7661ZM23.4064 27.6608L32.2794 33.303L12.9773 56.8186L5.24244 50.1613L23.4064 27.6608ZM24.6582 77.5187L27.3362 74.8407C27.4174 74.7596 27.5028 74.6826 27.59 74.6109C28.1138 74.1836 28.7478 73.929 29.4194 73.8683C29.4382 73.8666 29.4579 73.8666 29.4767 73.8658C29.5724 73.8581 29.6681 73.8529 29.7647 73.8538C30.6824 73.8666 31.5352 74.2417 32.1675 74.9091C33.4082 76.2207 33.3416 78.3638 32.0188 79.6866L29.422 82.2834C28.1087 83.5967 25.9716 83.5967 24.6582 82.2834C23.3449 80.9692 23.3449 78.8321 24.6582 77.5187ZM31.548 91.1872C30.9114 90.5514 30.561 89.7055 30.561 88.8057C30.561 87.9059 30.9114 87.06 31.548 86.4234L36.7407 81.2306C37.7354 80.236 39.2991 79.9634 40.5706 80.5693C41.8814 81.1939 42.6188 82.6166 42.4265 84.0479C42.324 84.8118 41.9685 85.5313 41.4234 86.0773L36.3126 91.1872C35.676 91.8238 34.8301 92.1741 33.9303 92.1741C33.0305 92.1741 32.1846 91.8238 31.548 91.1872ZM39.3888 99.104C38.7522 98.4683 38.4019 97.6224 38.4019 96.7226C38.4019 95.8228 38.7522 94.9768 39.3888 94.3402L44.5807 89.1475C45.6445 88.0845 47.351 87.8555 48.6532 88.6134C49.8427 89.3056 50.4656 90.6642 50.2614 92.0177C50.1494 92.762 49.7957 93.4618 49.2633 93.9942L44.1535 99.104C43.5169 99.7406 42.6709 100.091 41.7711 100.091C40.8713 100.091 40.0254 99.7406 39.3888 99.104ZM48.32 106.008C47.0066 104.695 47.0066 102.558 48.32 101.245L50.9979 98.5666C51.0791 98.4854 51.1637 98.4093 51.2509 98.3376C51.2534 98.3359 51.2551 98.3341 51.2569 98.3324C51.6926 97.9787 52.2045 97.742 52.7505 97.6386C52.7633 97.6369 52.7761 97.6352 52.789 97.6335C52.8829 97.6164 52.9787 97.6027 53.0744 97.5942C53.1128 97.5907 53.1513 97.5907 53.1906 97.5882C53.2692 97.5839 53.3469 97.5788 53.4264 97.5796C54.3433 97.5924 55.1969 97.9667 55.8292 98.6349C55.907 98.717 55.9796 98.8024 56.0463 98.8904C57.0563 100.211 56.9204 102.172 55.6669 103.426L53.0838 106.009C51.7704 107.323 49.6333 107.322 48.32 106.008ZM89.2886 81.4989C87.9752 82.8131 85.8382 82.8123 84.5248 81.4989C84.477 81.4511 84.4265 81.4067 84.3753 81.3648L70.2539 67.0948C69.4003 66.2326 68.01 66.2257 67.1478 67.0794C66.2857 67.9322 66.2788 69.3224 67.1316 70.1846L81.4059 84.6076C81.4076 84.6093 81.4093 84.611 81.411 84.6127C82.7244 85.9261 82.7244 88.064 81.411 89.3774C80.7744 90.014 79.9285 90.3643 79.0287 90.3643C78.1281 90.3643 77.2821 90.014 76.6464 89.3774L67.0974 79.7293C66.2446 78.8671 64.8544 78.8603 63.9922 79.7131C63.13 80.5667 63.1232 81.9569 63.976 82.8191L73.3788 92.3194C73.4267 92.3792 73.4779 92.4364 73.5326 92.4911C74.846 93.8045 74.846 95.9424 73.5326 97.2558C72.2184 98.5691 70.0805 98.5683 68.7671 97.2549L63.5556 91.9887C62.7019 91.1265 61.3117 91.1188 60.4495 91.9725C59.5873 92.8252 59.5805 94.2155 60.4332 95.0777L65.4995 100.196C65.5474 100.256 65.5986 100.314 65.6542 100.369C66.9675 101.682 66.9675 103.82 65.6542 105.133C64.3408 106.448 62.2038 106.447 60.8904 105.133C60.7392 104.982 60.5614 104.866 60.3922 104.736C60.2487 104.627 60.2111 104.551 60.2829 104.376C60.3555 104.199 60.464 104.04 60.5366 103.862C60.617 103.664 60.6819 103.459 60.7451 103.254C61.0818 102.169 61.1809 101.002 61.0297 99.8757C60.7392 97.7146 59.5506 95.7647 57.7493 94.5308C56.776 93.8652 55.6498 93.4285 54.4826 93.2644C55.0482 90.7693 54.3689 88.064 52.6018 86.1969C51.1475 84.6606 49.183 83.7984 47.0698 83.7693C46.9929 83.7685 46.916 83.7685 46.8383 83.7693C46.8853 81.7527 46.1521 79.7489 44.7619 78.2801C43.3067 76.7437 41.3422 75.8815 39.2299 75.8524C38.6018 75.8439 37.9678 75.9106 37.356 76.0515C37.0945 74.2323 36.1776 72.549 34.7891 71.345C33.4091 70.1504 31.6736 69.4873 29.8253 69.4617C27.8796 69.4335 25.9681 70.1513 24.5232 71.4561L16.0338 60.017L36.3434 35.2743L42.8162 37.0448L34.3627 51.9617C33.3407 53.7655 33.0827 55.859 33.6355 57.8568C34.1884 59.8555 35.4855 61.5183 37.2893 62.5403C37.4021 62.6044 37.5158 62.6651 37.6311 62.7232C37.6397 62.7274 37.6482 62.7317 37.6576 62.736C37.9609 62.8872 38.2728 63.0171 38.589 63.1265C40.0613 63.6366 41.6515 63.6922 43.1853 63.2683C45.1831 62.7155 46.846 61.4175 47.8679 59.6145L53.3615 49.9203L63.1702 50.6159L89.2895 76.7343C90.602 78.0485 90.602 80.1856 89.2886 81.4989ZM90.1986 71.4322L65.6961 46.9304C65.6499 46.8834 65.6012 46.839 65.5508 46.7971C65.1979 46.5032 64.7604 46.3255 64.299 46.293L52.2891 45.4411C51.4585 45.3838 50.6331 45.8256 50.2229 46.5493L44.0466 57.4492C43.6032 58.232 42.8811 58.7951 42.0138 59.0352C41.1474 59.2753 40.2382 59.1625 39.4546 58.719C38.6719 58.2755 38.1088 57.5535 37.8687 56.6862C37.6286 55.8189 37.7405 54.9097 38.1848 54.127L46.4298 39.5758L49.7709 38.6145C49.7931 38.6077 49.8145 38.5991 49.8367 38.5923L62.3063 34.9915H77.3727L96.1818 58.9019L90.1986 71.4322ZM99.0589 55.4549L81.6648 33.3312L90.5421 27.6856L106.795 48.7975L99.0589 55.4549Z" fill="#FC8047"/>
<path d="M67.8523 26.4756C68.4146 26.4756 68.9768 26.2611 69.4058 25.8322L84.4072 10.8307C85.2652 9.97278 85.2652 8.58252 84.4072 7.72461C83.5493 6.8667 82.1591 6.8667 81.3012 7.72461L66.2997 22.7261C65.4418 23.584 65.4418 24.9742 66.2997 25.8322C66.7286 26.2611 67.2909 26.4756 67.8523 26.4756Z" fill="#FC8047"/>
<path d="M42.5941 25.8322C43.0231 26.2611 43.5853 26.4756 44.1476 26.4756C44.709 26.4756 45.2712 26.2611 45.7002 25.8322C46.5581 24.9742 46.5581 23.584 45.7002 22.7261L30.6987 7.72461C29.8408 6.8667 28.4506 6.8667 27.5927 7.72461C26.7347 8.58252 26.7347 9.97278 27.5927 10.8307L42.5941 25.8322Z" fill="#FC8047"/>
<path d="M55.9997 26.4756C57.2123 26.4756 58.1958 25.4921 58.1958 24.2795V11.8646C58.1958 10.6521 57.2123 9.66858 55.9997 9.66858C54.7872 9.66858 53.8037 10.6521 53.8037 11.8646V24.2795C53.8037 25.4921 54.7872 26.4756 55.9997 26.4756Z" fill="#FC8047"/>
<path d="M53.9732 3.90501C54.3218 4.7501 55.1909 5.30467 56.1077 5.25682C57.0135 5.20982 57.809 4.598 58.0893 3.73582C58.3704 2.8668 58.0645 1.87645 57.3365 1.32273C56.5939 0.757061 55.5583 0.725445 54.7816 1.23899C53.9151 1.8115 53.5793 2.9514 53.9732 3.90501Z" fill="#FC8047"/>
</g>
<defs>
<clipPath id="clip0">
<rect width="112" height="112" fill="white"/>
</clipPath>
</defs>
</svg>
