<svg width="113" height="113" viewBox="0 0 113 113" fill="none" xmlns="http://www.w3.org/2000/svg">
<path d="M103.354 56.2087C105.985 54.2806 107.703 51.1766 107.703 47.6719C107.703 42.1667 103.483 37.6343 98.1087 37.1293C92.1656 24.3833 80.712 15.0555 67.0673 11.8385C66.7936 6.23972 62.1659 1.76562 56.5 1.76562C50.8341 1.76562 46.2064 6.23972 45.9327 11.8385C32.2897 15.0555 20.8326 24.3868 14.8913 37.1293C9.51672 37.6343 5.29688 42.1667 5.29688 47.6719C5.29688 51.1766 7.01483 54.2806 9.64561 56.2087C4.98436 58.5199 1.76562 63.3153 1.76562 68.8594V74.1562C1.76562 75.1309 2.55663 75.9219 3.53125 75.9219H14.9142C20.37 87.5679 30.6724 96.5444 42.917 100.346C42.5728 101.564 42.375 102.844 42.375 104.172V109.469C42.375 110.443 43.166 111.234 44.1406 111.234H68.8594C69.834 111.234 70.625 110.443 70.625 109.469V104.172C70.625 102.844 70.4273 101.564 70.0847 100.346C82.3276 96.5444 92.63 87.5679 98.0858 75.9219H109.469C110.443 75.9219 111.234 75.1309 111.234 74.1562V68.8594C111.234 63.3153 108.016 58.5199 103.354 56.2087ZM104.172 47.6719C104.172 51.5668 101.004 54.7344 97.1094 54.7344C93.2144 54.7344 90.0469 51.5668 90.0469 47.6719C90.0469 43.7769 93.2144 40.6094 97.1094 40.6094C101.004 40.6094 104.172 43.7769 104.172 47.6719ZM56.5 5.29688C60.395 5.29688 63.5625 8.46441 63.5625 12.3594C63.5625 16.2543 60.395 19.4219 56.5 19.4219C52.605 19.4219 49.4375 16.2543 49.4375 12.3594C49.4375 8.46441 52.605 5.29688 56.5 5.29688ZM8.82812 47.6719C8.82812 43.7769 11.9957 40.6094 15.8906 40.6094C19.7856 40.6094 22.9531 43.7769 22.9531 47.6719C22.9531 51.5668 19.7856 54.7344 15.8906 54.7344C11.9957 54.7344 8.82812 51.5668 8.82812 47.6719ZM5.29688 68.8594C5.29688 63.0169 10.0482 58.2656 15.8906 58.2656C21.7331 58.2656 26.4844 63.0169 26.4844 68.8594V72.3906H5.29688V68.8594ZM67.0938 107.703H45.9062V104.172C45.9062 98.3294 50.6575 93.5781 56.5 93.5781C62.3425 93.5781 67.0938 98.3294 67.0938 104.172V107.703ZM49.4375 82.9844C49.4375 79.0894 52.605 75.9219 56.5 75.9219C60.395 75.9219 63.5625 79.0894 63.5625 82.9844C63.5625 86.8793 60.395 90.0469 56.5 90.0469C52.605 90.0469 49.4375 86.8793 49.4375 82.9844ZM68.6934 97.0758C67.3003 94.6905 65.231 92.7536 62.745 91.5212C65.3758 89.5931 67.0938 86.4891 67.0938 82.9844C67.0938 77.1419 62.3425 72.3906 56.5 72.3906C50.6575 72.3906 45.9062 77.1419 45.9062 82.9844C45.9062 86.4891 47.6242 89.5931 50.255 91.5212C47.7707 92.7536 45.7014 94.6905 44.3066 97.0758C33.3827 93.79 24.0884 86.0548 18.8392 75.9219H28.25C29.2246 75.9219 30.0156 75.1309 30.0156 74.1562V68.8594C30.0156 63.3153 26.7969 58.5199 22.1356 56.2087C24.7664 54.2806 26.4844 51.1766 26.4844 47.6719C26.4844 42.7829 23.1509 38.669 18.6415 37.4542C24.2067 26.4049 34.3449 18.3201 46.3459 15.368C47.0133 17.6139 48.4064 19.5437 50.2532 20.8979C45.5937 23.2074 42.375 28.0028 42.375 33.5469V38.8438C42.375 39.8184 43.166 40.6094 44.1406 40.6094H68.8594C69.834 40.6094 70.625 39.8184 70.625 38.8438V33.5469C70.625 28.0028 67.4063 23.2074 62.745 20.8962C64.5901 19.5419 65.9849 17.6121 66.6523 15.3662C78.6568 18.3184 88.7915 26.4014 94.3568 37.4524C89.8474 38.669 86.5156 42.7829 86.5156 47.6719C86.5156 51.1766 88.2336 54.2806 90.8644 56.2087C86.2031 58.5199 82.9844 63.3153 82.9844 68.8594V74.1562C82.9844 75.1309 83.7754 75.9219 84.75 75.9219H94.1608C88.9098 86.0548 79.6173 93.79 68.6934 97.0758ZM56.5 22.9531C62.3425 22.9531 67.0938 27.7044 67.0938 33.5469V37.0781H45.9062V33.5469C45.9062 27.7044 50.6575 22.9531 56.5 22.9531ZM107.703 72.3906H86.5156V68.8594C86.5156 63.0169 91.2669 58.2656 97.1094 58.2656C102.952 58.2656 107.703 63.0169 107.703 68.8594V72.3906Z" fill="#FC8047"/>
<path d="M47.6719 56.5H44.1406C44.1406 63.3153 49.6847 68.8594 56.5 68.8594V65.3281C51.6322 65.3281 47.6719 61.3678 47.6719 56.5Z" fill="#FC8047"/>
<path d="M56.5 44.1406V47.6719C61.3678 47.6719 65.3281 51.6322 65.3281 56.5H68.8594C68.8594 49.6847 63.3153 44.1406 56.5 44.1406Z" fill="#FC8047"/>
</svg>
